<?xml version="1.0" encoding="utf-8"?>
<!-- Generator: Adobe Illustrator 24.0.1, SVG Export Plug-In . SVG Version: 6.00 Build 0)  -->
<svg version="1.1" id="Layer_1" xmlns="http://www.w3.org/2000/svg" xmlns:xlink="http://www.w3.org/1999/xlink" x="0px" y="0px"
	 viewBox="0 0 1080 1920" style="enable-background:new 0 0 1080 1920;" xml:space="preserve">
<style type="text/css">
	.st0{fill:#FFFFFF;stroke:#000000;stroke-width:1.2913;}
	.st1{font-family:'MyriadPro-Regular';}
	.st2{font-size:29px;}
	.st3{stroke:#000000;stroke-miterlimit:10;}
	.st4{font-size:19px;}
</style>
<image style="overflow:visible;" width="24" height="24" xlink:href="A33F665E.jpg"  transform="matrix(1 0 0 1 -7652 -7232)">
</image>
<image style="overflow:visible;" width="24" height="24" xlink:href="A33F6662.jpg"  transform="matrix(1 0 0 1 -7652 -7232)">
</image>
<g>
	
		<image style="overflow:visible;" width="1398" height="1712" xlink:href="../../../../../../exam_project_space/src/assets/mascot/spaceman mascot.png"  transform="matrix(0.24 0 0 0.24 372 755)">
	</image>
	<path class="st0" d="M413.5,828h-221c-8.5,0-15.5-7-15.5-15.5v-128c0-8.5,7-15.5,15.5-15.5h221c8.5,0,15.5,7,15.5,15.5L443,846
		C443,854.5,422,828,413.5,828z"/>
	<text transform="matrix(1 0 0 1 195 711)"><tspan x="0" y="0" class="st1 st2">Hello, I am </tspan><tspan x="132.6" y="0" class="st3 st1 st2">Ceres</tspan><tspan x="199.4" y="0" class="st1 st2">!</tspan><tspan x="0" y="38" class="st1 st4">and welcome to Safe Space.</tspan><tspan x="0" y="60.8" class="st1 st4">- A place to learn about </tspan><tspan x="187.9" y="60.8" class="st3 st1 st4">space</tspan><tspan x="0" y="83.6" class="st1 st4">and have </tspan><tspan x="76.8" y="83.6" class="st3 st1 st4">fun!</tspan></text>
</g>
</svg>
